<svg xmlns="http://www.w3.org/2000/svg" viewBox="0 -625.586 1000 1319.969">
  <path fill="#B9D6E0" d="M0-625.586h1000v1319.97H0v-1319.97z"/>
  <path fill="#836568" d="M985.29 596.646l-42.22-40.705-61.6-42.05-95.647 4.59-97.298-6.106L665 536.884l-22.734 8.187-54.963 74.878 59.13 36.695 43.57 2.62 300.81 15.62 16.75-68.982"/>
  <path fill="#70575B" d="M688.793 512.146l54.287 23.236H807l65.073 14.758-136.493 11.486-32.467-3.104-60.807-13.45L665 536.885v-7.826"/>
  <path fill="#836568" d="M664.918 529.06l49.387 7.825-38.805-10.21-.912-4.45"/>
  <path fill="#70575B" d="M626.62 566.383l62.99 15.857L706 633.596l-129-1.213"/>
  <path fill="#836568" d="M617.818 578.09l-3.12 4.15 63.796 14.01 17.652 37.253 5.38-.12-18.466-40.11"/>
  <circle fill="#5B484C" cx="734" cy="578.434" r="8.333"/>
  <path fill="#70575B" d="M734 570.1c-.34 0-.672.026-1 .065 4.13.495 7.334 4.005 7.334 8.27 0 4.263-3.204 7.77-7.334 8.268.328.04.66.064 1 .064 4.604 0 8.334-3.73 8.334-8.333s-3.73-8.334-8.334-8.334z"/>
  <circle fill="#5B484C" cx="756" cy="578.434" r="8.333"/>
  <path fill="#70575B" d="M756 570.1c-.34 0-.672.026-1 .065 4.13.495 7.334 4.005 7.334 8.27 0 4.263-3.204 7.77-7.334 8.268.328.04.66.064 1 .064 4.604 0 8.334-3.73 8.334-8.333s-3.73-8.334-8.334-8.334z"/>
  <circle fill="#5B484C" cx="778" cy="578.434" r="8.333"/>
  <path fill="#70575B" d="M778 570.1c-.34 0-.672.026-1 .065 4.13.495 7.334 4.005 7.334 8.27 0 4.263-3.204 7.77-7.334 8.268.328.04.66.064 1 .064 4.604 0 8.334-3.73 8.334-8.333s-3.73-8.334-8.334-8.334z"/>
  <circle fill="#5B484C" cx="801" cy="578.434" r="8.333"/>
  <path fill="#70575B" d="M801 570.1c-.34 0-.672.026-1 .065 4.13.495 7.334 4.005 7.334 8.27 0 4.263-3.204 7.77-7.334 8.268.328.04.66.064 1 .064 4.604 0 8.334-3.73 8.334-8.333s-3.73-8.334-8.334-8.334z"/>
  <path fill="#836568" d="M851.567 525.868l-4.834-11.578 6.042-13.702 8.39-8.674 43.353 7.347 4.54 16.28-7.072 16.844h-33.422"/>
  <path fill="#70575B" d="M904.518 499.26l-43.354-7.346-3.636 3.76 38.207 6.475 4.008 14.366-6.243 14.867-24.938 1h33.423l7.073-16.844"/>
  <path fill="#AB6F8B" d="M845 529.383h-44l-28-8h44"/>
  <g>
    <path fill="#4F3F43" d="M862.5 493.633l3.583-1 30.583 5.168-2.25 1.42"/>
    <path
      fill="#D6F9FF"
      d="M892.144 497.882c-2.026-17.69-8.62-34.453-23.154-50.035-30.798-33.018-84.304-48.544-139.14-54.042-76.495-7.67-155.168-1.85-232.114-1.66-67.437.166-134.455-3.967-201.797-5.31-43.463-.867-88.957-.558-131.156 7.537-12.176 2.336-34.01 6.35-36.738 16.752-2.7 10.305 16.174 11.368 26.9 12.266 64.525 5.398 131.535 2.808 196.376 3.273 127.192.914 257.61-2.21 382.48 16.902-65.32-.758-130.603-.658-195.812-2.26-53.15-1.308-106.69-1.22-159.792-3.84-56.604-2.795-116.2-6.43-172.853-2.496-16.675 1.157-38.963 7.085-49.82 16.005 4.056 2.986 9.34 5.14 15.64 4.61 42.804 10.4 91.26 8.39 135.94 8.225 51.088-.188 102.127-.574 153.217-.292 90.512.5 181.09.484 271.6.72 26.63.068 52.23-.418 78.706 1.54 17.81 1.318 47.638 2.3 56.116 15.078 3.28 4.943 4.854 10.097 7.067 14.762l18.33 2.265h.004z"/>
    <g fill="#BFDCE0">
      <path
        d="M146.04 418.323c2.637-10.063 23.76-13.946 35.54-16.207 40.826-7.83 84.838-8.13 126.884-7.29 65.15 1.298 129.986 5.296 195.227 5.135 74.442-.182 150.554-5.81 224.558 1.61 53.052 5.318 104.813 20.34 134.608 52.28 12.596 13.503 19.015 27.927 21.628 43.085l7.66.947c-2.026-17.69-8.62-34.453-23.154-50.035-30.798-33.018-84.304-48.544-139.14-54.04-76.495-7.672-155.168-1.852-232.114-1.66-67.437.165-134.455-3.968-201.797-5.312-43.463-.867-88.957-.56-131.156 7.537-12.176 2.336-34.01 6.35-36.738 16.752-2.062 7.865 8.444 10.345 18.304 11.478-.593-1.205-.748-2.615-.31-4.28z"/>
      <path
        d="M220.824 441.392c54.808-3.806 112.462-.29 167.223 2.414 51.372 2.536 103.17 2.45 154.59 3.714 63.084 1.55 126.243-4.95 189.438-4.218-17.112-2.62-34.335 1.612-51.64-.216-47.51-.35-94.997-.615-142.44-1.78-53.15-1.307-106.69-1.22-159.793-3.84-30.41-1.5-61.68-3.233-92.896-3.917-13.69.04-27.393.02-41.064-.17-13.067.212-26.056.7-38.89 1.59-16.675 1.16-38.963 7.086-49.82 16.006 4.056 2.986 9.34 5.14 15.64 4.61.793.193 1.59.374 2.388.558 10.802-8.22 31.594-13.665 47.264-14.752z"/></g>
  </g>
  <g>
    <path fill="#836568" d="M68.174 595.742L143 570.91v9.436l81.306-27.637 9.3-8.09 53.05-10.045 8.607 6.807h63.31l-6.696 23.863-.925 8.533-19.773 6.583 27.394 4.766-10.48 48.255H165.596"/>
    <path
      fill="#70575B"
      d="M356.163 550.14l-61.417 17.398 30.71-4.718-30.71 17.3 34.296 14.55 6.668 39.713h12.384l10.48-48.74-27.396-5.156 19.772-6.607.925-8.507m-89.902-1.19l-18.184 4.142-65.61 14.935 43.912-.342-3.687-2.706 21.592-3.8 7.667-1.353 42.66-7.515-38.766 3.046M336 546.05l-32.667 10.666L336 550.14"/>
    <path fill="#604C50" d="M178.18 618.547l35.262 1.52 11.76 13.316H188.05"/>
    <path fill="#867791" d="M-.03 567.892l37.157-6.267 27.606 9.738 3.544 6.02h18.08l24.38 5.998 4.955 5.123 16.984 3.88h18.456l10.558 6.313 4.247 11.767 12.738 3.92h16.44l14.698 5.354 7.784 8.106 9.907 5.54H-.006"/>
    <path
      fill="#756A7F"
      d="M30.733 568.725l3.544 7.658h18.08l24.38 7.764 4.955 6.414 16.984 4.824h18.456l10.558 8.292 4.247 15.39 12.738 5.318h16.44l14.698 6.678 1.753 2.323h49.938l-9.907-5.54-7.784-8.106-14.7-5.355h-16.438l-12.738-3.92-4.247-11.768-10.558-6.313h-18.456l-16.984-3.88-4.954-5.122-24.38-5.997h-18.08l-3.545-6.02-27.606-9.738-16.12 2.72"/>
    <path fill="#6E6377" d="M-.006 633.37L0 590.36l14-6.978h18l18 8 14 6.125 18 10.875h22l19-.006 14 12.006h12l35 13"/>
    <path fill="#605868" d="M54 595.114l18 15.27h22l19 .067 14 16.934h12l11.582 5.998 33.418.003-35-13h-12l-14-12.006-19 .005H82L64 597.51l-14-6.125-7.505-3.336"/></g><path fill="#83AE79" d="M0 633.383h1000v61H0v-61z"/>
  <g>
    <path fill="#DBB286" d="M438 533.824v-9.44h-2v-4h1.662l.056-8.878-1.718-.568v-5.704l56.82-11.02-.667 32.666"/>
    <path fill="#F3D9B7" d="M436 510.938l56.624-10.172.004-6.552L436 505.234"/>
    <path fill="#EDCDA3" d="M436 524.89l56.08-10.052.102-5.573L436 519.975"/>
    <path fill="#CA9E76" d="M445 510.594v5.36l8-1.19v-5.36m23-4.766v5.956l9-1.458v-6.285"/>
    <path fill="#C1AB95" d="M437.413 511.377l-1.964-.44 57.01-11.063.163.893m-54.96 23.616h-1.788l56.142-9.798.07.32"/>
    <path fill="#D9AE80" d="M532.802 514.634l-40.34-14.76.222-5.66 40.28 15.19"/>
    <path fill="#C49770" d="M492.46 500.728l-.224 9.233 39.53 12.265.154-7.46"/>
    <path fill="#B98C69" d="M491.938 514.838l.035-5.573L534 522.905v4.963"/>
    <path fill="#BF9773" d="M492.46 499.873l-.007.854 39.172 14.036 1.177-.13"/>
    <path fill="#A97C5F" d="M505 512.21l-6-2.202v-5.37l6 2.524m13 9.218l-7-2.523v-5.05l7 2.525m11 8.623l-8-2.525v-5.05l8 2.526"/>
    <path fill="#A0775C" d="M491.813 515.284l.295-.48L534 527.87l-2-.184"/>
    <path fill="#B88B69" d="M491.77 526.88l.043-11.596 40.187 12.4v7.927"/>
    <path fill="#553539" d="M507 526.676l-4-1.19v-5.36l4 1.19m7 7.744l-4-1.19v-5.36l4 1.19m7 7.74l-3-1.19v-5.36l3 1.19"/>
    <path
      fill="#DEB688"
      d="M273.666 668.383l9.828-17.94 9.084-1.272 6.303-12.786h9.53l5.96-11.967 11.514-1.26 5.956-12.773h12.904l6.553-15H364.4l6.354-15h11.515l4.764-15.14 13.104-2.31 5.56-13.265 12.31-2.067 5.16-12.746 80.61-10.742 49.636 17.024 11.117 14.242H567v4.648l10.887 8.538 7.113 1.588v5.362l10.016 7.742 6.598.398 6.078 13.104 8.4 1.985 4.795 8.34 12.325 4.765 5.568 13.104 9.534 1.192 11.12 13.896 8.34 1.59 9.53 11.912 13.5 5.035 10.723 9.804h-150.1"/>
    <path
      fill="#C89B73"
      d="M503.777 524.087l49.636 17.038 11.117 14.258h3.573l.3 4.855 10.184 8.434 6.413 1.484v5.36l10.016 7.744 6.598.398 6.078 13.104 8.97 2.978 4.226 7.346 12.325 4.765 5.568 13.105 9.535 1.192 11.12 13.896 8.34 1.59 9.53 11.912 13.5 5.035 12.31 9.803h-154.07"/>
    <path fill="#E9C79F" d="M435.624 533.602L327.47 668.382h58.968l101.158-141.498"/>
    <path fill="#E3BE93" d="M440.938 534.34L335.413 667.382h41.495l101.058-137.848"/>
    <path fill="#DEB88D" d="M512.36 527.468l143.5 140.915h27.2L550.746 540.675"/>
    <path fill="#C59770" d="M522.142 532.953l26.768 8.852 129.584 126.578h-16.876"/>
    <path
      fill="#986B53"
      d="M621.19 668.635l-7.456-18.023-6.318-1.83-6.335-13.824-9.15-1.663-4.626-13.346-7.88-1.545-5.193-15.04-5.71-1.278-6.373-14.357-8.933-1.49-6.55-13.47-7.745-.824-4.767-14.295-7.148-1.19-7.147-16.53-4.02-.89-3.478-11.54 142.905 141.236"/>
  </g>
  <g><path fill="#867791" d="M672.473 633.596l52.55-11.45 10.53-13.395 12.026-9.366H767l22.577 2.723 41.998-23.723H842l33.073 9.326 25.5-21.327H950l15.068 8.112L1000 558.52v74.913"/><path fill="#756A7F" d="M905.06 570.1l3.08-3.717h-7.567l-1.525 1.276m-92.5 24.86l4.793.754 13.407-11.033m-84.167 42.267l11.54-20.744 4.016-4.38h-8.557l-12.03 9.367-10.526 13.396-52.55 11.45 39.224-.02"/></g>
  <g><path fill="#4B7C66" d="M333.09 180.383S534 352.883 1011.83 456.49l-3.448-18.917s-436.345-95.22-667.4-273.19"/><path fill="#406855" d="M338.982 172.383c231.055 177.97 667.4 273.19 667.4 273.19l1.844 10.127c1.203.262 2.396.526 3.604.79l-3.448-18.917s-436.345-95.22-667.4-273.19l-7.89 16s.458.394 1.377 1.15l4.512-9.15z"/><path fill="#36434C" d="M94.767 705.383l61.476-53.932 163.462-89.495-8.225-18.105-165.717 71L769.667-432.31l-44 20L-31.317 705.383"/><path fill="#2D393F" d="M94.604 705.383l61.557-53.932 163.506-89.495-195.43 72.43 21.518-19.727 158.45-266.274 185.622-311.01-447.33 668.008"/><path fill="#3D5648" d="M244.56 585.72s2.65-78.94 88.53-104.31c85.883-25.372 30.64 64.85-88.53 104.31z"/><path fill="#314438" d="M333.09 481.41s-33.92 29.86-43.338 59.113c14.703-47.25 43.34-59.114 43.34-59.114h-.002z"/><path fill="#3D5648" d="M245.44 585.24s46.246-64.03 131.67-37.16c85.426 26.868-10.76 70.91-131.67 37.16z"/><path fill="#314438" d="M377.11 548.08s-44.813 5.852-68.95 24.87c38.567-31.004 68.95-24.87 68.95-24.87z"/><path fill="#3D5648" d="M245.026 583.784s72.715-30.837 131.89 36.378c59.174 67.214-45.92 55.096-131.89-36.378z"/><path fill="#314438" d="M376.916 620.162s-41.37-18.193-71.867-14.42c49.045-6.558 71.865 14.42 71.866 14.42z"/><path fill="#2D393F" d="M409.683 88.383l-341.51 520L416 88.383"/><ellipse transform="rotate(-64.475 84.07 591.43)" fill="#232C30" cx="84.072" cy="591.431" rx="25.054" ry="15.913"/>
    <path
      fill="#2D393F"
      d="M77.292 614.044c-7.93-3.787-9.526-16.98-3.564-29.465 4.417-9.253 11.742-15.515 18.468-16.602-7.625-1.34-17.152 5.467-22.468 16.6-5.962 12.486-4.366 25.678 3.564 29.465 2.055.98 4.335 1.23 6.688.85-.928-.164-1.83-.44-2.688-.85z"/><path fill="#364C3F" d="M245.026 583.784s26.283-40.98 86.628-42.19c-41.902-1.073-62.57 9.997-86.628 42.19z"/><path fill="#36434C" d="M971.122-109.617H930l-11.716 6 19.716 511-49-59-16.927 7.1L944 499.873l46 261.51 104-5"/><path fill="#2A343A" d="M934.704 408.7l3.296-1.317-49-59-9.417 3.948m75.836-460.363l122.043 766.762L1094 756.382l-122.878-866H930l-11.716 6"/><path fill="#4B7C66" d="M349.807 141.28l57.727 36.44-13.354 22.055-53.197-45.436"/><path fill="#406855" d="M349.807 141.28l-8.824 13.06.034.03 4.79-7.09 57.727 36.44-9.596 15.848.24.207 13.355-22.056"/><path fill="#4B7C66" d="M340.982 154.34l47.282 55.203-11.153 18.422-42.912-63.582"/><path fill="#406855" d="M340.982 154.34l-5.29 7.83 46.572 54.373-6.082 10.046.93 1.374 11.153-18.422"/><path fill="#36434C" d="M521-48.31l204.667-140 22 8-257.84 204"/><path fill="#2D393F" d="M500 15.642l35.5-35.95 208.165-161.456 4.002 1.455M763.05-429.3L549.734-67.965l4.816-3.294 215.117-361.05"/><path fill="#232C30" d="M971.122-109.617H930l-11.716 6h37.838"/>
    <path
      fill="#D6F9FF"
      d="M933.904-106.022c4.863-8.748 4.396-17.205 5.96-26.52 3.182-18.916-19.547-95.386-77.364-113.11-72.193-22.13-153.07 2.34-190.027 12.886-70.812 20.202-99.656 83.553-175.543 85.983-24.06.77-48.01-2.59-67.93-12.133-12.335-5.907-22.33-14.875-37.574-16.702-18-2.16-7.788-22.132 18.31-24.206 17.185-1.365 87.384-2.407 79.602-27.722-10.712-34.84-170.637 31.562-147.908-26.543 6.57-16.8 27.426-32.336 43.333-44.316 38.802-29.225 84.445-53.155 130.116-75.096 67.86-32.602 140.042-62.558 215.13-82.21 48.488-12.69 105.994-23.267 150.82-3.5 32.384 14.283 54.117 40.598 73.12 64.613 15.97 20.185 31.342 41.74 36.918 65.69 3.857 16.565 1.23 33.39 2.21 50.205.8 13.747 6.062 26.183 9.672 39.39 13.94 50.975-29.61 87.21-55.53 131.595"/><path fill="#BFDCE0" d="M411.287-188.28c17.184-1.366 55.817-7.624 75.88-28.026.972-.988 3.48-4.953 2.66-5.998-7.782 17.566-64.938 21.277-80.09 22.48-23.008 1.828-33.665 17.566-23.533 22.747 3.92-5.22 12.717-10.22 25.083-11.204z"/>
    <path
      fill="#D6F9FF"
      d="M941.256-149.27c.138 5.22-.382 10.728-1.39 16.73-1.566 9.312-1.1 17.77-5.962 26.518l6.136-.824c.662-5.67.538-9.176 1.375-14.153 1.777-10.578 2.044-19.627-.16-28.27zM1002.75-239.314c-2.634-9.63-6.137-18.85-8.155-28.467.01.206.02.412.032.62.8 13.747 6.062 26.183 9.672 39.39.39 1.427.73 2.843 1.03 4.25-.27-5.118-1.098-10.372-2.58-15.794z"/>
    <path
      fill="#BFDCE0"
      d="M351.82-250.32c38.8-29.225 84.442-53.155 130.113-75.096 67.863-32.603 140.043-62.56 215.13-82.21 48.49-12.69 105.996-23.267 150.822-3.498 32.384 14.28 54.116 40.597 73.12 64.612 15.97 20.183 31.34 41.738 36.918 65.688 3.857 16.565 1.23 33.39 2.21 50.205.8 13.748 6.06 26.185 9.672 39.39 5.862 21.438 1.555 40.27-7.332 58.197 24.54-34.766 52.04-66.746 40.563-108.72-3.61-13.207-8.872-25.644-9.67-39.39-.98-16.816 1.646-33.64-2.212-50.206-5.576-23.948-20.95-45.504-36.92-65.687-19-24.016-40.733-50.33-73.117-64.612-44.827-19.768-102.333-9.19-150.82 3.5-75.09 19.65-147.27 49.607-215.132 82.21-45.67 21.94-91.313 45.87-130.115 75.094-15.907 11.98-36.762 27.516-43.333 44.317-2.494 6.377-2.788 11.254-1.32 14.93 3.912-3.073 7.795-5.99 11.422-8.72z"/>
    <g>
      <path fill="#4B7C66" d="M612.393-110.825l-6.72 42.86 13.073-10.344 5.088-40.34M623.834-118.65l.92 35.59 12.95-10.248v-34.83M642.15-131.18v34.355l11.09-8.775v-33.166"/><path fill="#4B7C66" d="M623.834-82.324v280.1h10V-92.247"/><path fill="#406855" d="M629.834-89.08v286.855h4v-290.02"/><path fill="#4B7C66" d="M627.294 162.527s-19.46 2.752-23.46 20.625 23.46-20.625 23.46-20.625zM627.294 88.383s-19.46 2.752-23.46 20.625 23.46-20.625 23.46-20.625zM627.294-4.95s-19.46 2.75-23.46 20.624 23.46-20.625 23.46-20.625z"/><path fill="#406855" d="M630.437 130.527s19.46 2.752 23.46 20.625-23.46-20.625-23.46-20.625zM630.437 46.527s19.46 2.752 23.46 20.625-23.46-20.625-23.46-20.625zM630.437-64.14s19.46 2.752 23.46 20.625-23.46-20.625-23.46-20.625z"/>
    </g>
    <g>
      <path fill="#365646" d="M-1.95 170.915l174.014 48.977 12.55 140.65-74.446-73.788 21.75 55.528-18.984-12.3-30.07-66.135L95.32 329.6l-17.33-12.483-36.214-71.5L63.48 304.54l-27.93-19.49-35.573-49.924 9.806 37.05-33.02-15.798-3.945-12.58"/><path fill="#2C4437" d="M137.63 251.738l6.092 68.274 40.89 40.53-12.548-140.65L-1.95 170.915l-13.103 37.85"/><path fill="#406855" d="M-43.748 116.74l240.73-79.365 124.778 153.73-144.378-27.487 68.794 47.534-31.713.567-86.78-53.35 66 66.704-29.933-.94-98.128-54.778 71.4 51.522-47.745-.788L8.795 189.9l40.427 35.403-50.775 7.498-14.44-11.54"/><path fill="#365646" d="M181.886 101.383l60.57 74.624 79.304 15.098-124.78-153.73-240.728 79.366 14.413 54.28"/></g>
  </g>
  <ellipse class="shadowpersozen" fill="#7C5267" cx="809.677" cy="525.734" rx="8.677" ry=".648"/>
  <g class="persozen">
    <path fill="#444" d="M817.145 521.363c-.534-1.01-2.388-1.17-5.096-.514-1.058.257-2.05.582-3.05.808v-5.44c2-.14 4.8-.57 5.712-1.596.856-.96.11-2.856-.19-3.415-.177-.33-.502-.452-.83-.275-.33.18-.41.588-.232.917.39.72.335 1.645.22 1.874-.43.468-2.68.92-4.68 1.13v-1.885c2-.24 3.517-1.773 3.517-3.63 0-2.023-1.47-3.664-3.49-3.664-2.024 0-3.74 1.64-3.74 3.663 0 1.723 1.716 3.17 2.716 3.56v1.933c-1-.217-3.584-.655-4-1.107-.113-.228.23-1.152.618-1.876.18-.33.097-.74-.23-.917-.33-.177-.72-.054-.898.275-.3.56-1.367 2.455-.513 3.415.87.978 4.023 1.414 5.023 1.575v5.4c0-.187-1.29-.423-2.17-.606-2.607-.545-3.986-.334-4.517.664-.272.512-.237 1.057.022 1.53.462.844 1.792 1.475 4.025 1.93 1.527.313 2.938.43 2.996.434l.06.002c.35 0 .648-.27.677-.623.03-.374-.246-.7-.62-.73-2.516-.203-5.49-.896-5.913-1.662-.023-.044-.052-.097.027-.247.085-.155.806-.456 3.114.026 1.252.26 2.46.647 2.93.805.108.07.234.11.37.11h.027c.034 0 .07 0 .104-.002.1.01.206-.003.307-.04.02-.008 1.61-.618 3.28-1.022 2.812-.683 3.228-.17 3.23-.165.07.138.053.196.02.26-.427.812-3.485 1.642-6.077 1.944-.37.043-.637.378-.593.75.04.345.333.6.672.6.026 0 .053-.002.08-.005.06-.01 1.492-.177 3.057-.554 2.273-.548 3.603-1.237 4.06-2.107.253-.49.245-1.017-.025-1.527z"/>
    <ellipse fill="#BFE4FF" cx="807.907" cy="508.668" rx=".625" ry=".25"/>
    <ellipse fill="#BFE4FF" cx="810.409" cy="508.668" rx=".626" ry=".25"/></g>
</svg>
